# xmcd
#
# Track frame offsets: 
#        150
#        61392
#        116805
#        159280
#
# Disc length: 2626 seconds
#
# Revision: 0
# Processed by: cddbd v1.5.2PL0 Copyright (c) Steve Scherf et al.
# Submitted via: ExactAudioCopy v0.95b4
#
DISCID=2d0a4004
DTITLE=Jandek - Brooklyn Wednesday CD3
DYEAR=2007
DGENRE=Blues
TTITLE0=How 'R You
TTITLE1=City Pounding Down
TTITLE2=Different Blues
TTITLE3=My Necessity
EXTD=
EXTT0=
EXTT1=
EXTT2=
EXTT3=
PLAYORDER=
